<svg xmlns="http://www.w3.org/2000/svg" version="1.1" xmlns:xlink="http://www.w3.org/1999/xlink" xmlns:svgjs="http://svgjs.dev/svgjs" width="128" height="128" viewBox="0 0 128 128"><g transform="matrix(0.8046875,0,0,0.8046875,12.612792253521128,12.612792253521128)"><svg viewBox="0 0 142 142" data-background-color="#ffffff" preserveAspectRatio="xMidYMid meet" height="128" width="128" xmlns="http://www.w3.org/2000/svg" xmlns:xlink="http://www.w3.org/1999/xlink"><g id="tight-bounds" transform="matrix(1,0,0,1,-0.15550000000000352,-0.15550000000000352)"><svg viewBox="0 0 142.31066447748242 142.31066447748242" height="142.31066447748242" width="142.31066447748242"><g><svg></svg></g><g><svg viewBox="0 0 142.31066447748242 142.31066447748242" height="142.31066447748242" width="142.31066447748242"><g><path d="M0 71.155c0-39.298 31.857-71.155 71.155-71.155 39.298 0 71.155 31.857 71.156 71.155 0 39.298-31.857 71.155-71.156 71.156-39.298 0-71.155-31.857-71.155-71.156zM71.155 135.58c35.581 0 64.425-28.844 64.425-64.425 0-35.581-28.844-64.425-64.425-64.425-35.581 0-64.425 28.844-64.425 64.425 0 35.581 28.844 64.425 64.425 64.425z" data-fill-palette-color="tertiary" fill="#eca70b" stroke="transparent"></path><ellipse rx="68.30911894919156" ry="68.30911894919156" cx="71.15533223874121" cy="71.15533223874121" fill="#eca70b" stroke="transparent" stroke-width="0" fill-opacity="1" data-fill-palette-color="tertiary"></ellipse></g><g transform="matrix(1,0,0,1,29.989108276746492,33.839967171742046)"><svg viewBox="0 0 82.33244792398943 74.63073013399833" height="74.63073013399833" width="82.33244792398943"><g><svg viewBox="0 0 82.33244792398943 74.63073013399833" height="74.63073013399833" width="82.33244792398943"><g><svg viewBox="0 0 82.33244792398943 74.63073013399833" height="74.63073013399833" width="82.33244792398943"><g><svg viewBox="0 0 82.33244792398943 74.63073013399833" height="74.63073013399833" width="82.33244792398943"><g><svg viewBox="0 0 82.33244792398943 74.63073013399833" height="74.63073013399833" width="82.33244792398943"><g transform="matrix(1,0,0,1,0,0)"><svg width="82.33244792398943" viewBox="0.5 -34.4 37.95 34.4" height="74.63073013399833" data-palette-color="#ffffff"><path d="M38.45 0L26.75 0 25.3-4.85 13.25-4.85 11.8 0 0.5 0 13.05-34.4 25.9-34.4 38.45 0ZM19.2-24.8L15.55-12.55 23-12.55 19.4-24.8 19.2-24.8Z" opacity="1" transform="matrix(1,0,0,1,0,0)" fill="#ffffff" class="undefined-text-0" data-fill-palette-color="quaternary" id="text-0"></path></svg></g></svg></g></svg></g></svg></g><g></g></svg></g></svg></g></svg></g><defs></defs></svg><rect width="142.31066447748242" height="142.31066447748242" fill="none" stroke="none" visibility="hidden"></rect></g></svg></g></svg>