<svg xmlns="http://www.w3.org/2000/svg" version="1.1" xmlns:xlink="http://www.w3.org/1999/xlink" xmlns:svgjs="http://svgjs.dev/svgjs" width="2000" height="1999" viewBox="0 0 2000 1999"><g transform="matrix(1,0,0,1,-0.431486880466764,-0.4312711370263287)"><svg viewBox="0 0 343 343" data-background-color="#ffffff" preserveAspectRatio="xMidYMid meet" height="1999" width="2000" xmlns="http://www.w3.org/2000/svg" xmlns:xlink="http://www.w3.org/1999/xlink"><g id="tight-bounds" transform="matrix(1,0,0,1,0.0740000000000407,0.07400000000001228)"><svg viewBox="0 0 342.85155851775386 342.85155851775386" height="342.85155851775386" width="342.85155851775386"><g><svg></svg></g><g><svg viewBox="0 0 342.85155851775386 342.85155851775386" height="342.85155851775386" width="342.85155851775386"><g><path d="M0 171.426c0-94.676 76.75-171.426 171.426-171.426 94.676 0 171.426 76.75 171.426 171.426 0 94.676-76.75 171.426-171.426 171.426-94.676 0-171.426-76.75-171.426-171.426zM171.426 333.873c89.717 0 162.447-72.73 162.447-162.447 0-89.717-72.73-162.447-162.447-162.448-89.717 0-162.447 72.73-162.448 162.448 0 89.717 72.73 162.447 162.448 162.447z" data-fill-palette-color="tertiary" fill="#eca70b" stroke="transparent"></path><ellipse rx="164.56874808852186" ry="164.56874808852186" cx="171.42577925887693" cy="171.42577925887693" fill="#eca70b" stroke="transparent" stroke-width="0" fill-opacity="1" data-fill-palette-color="tertiary"></ellipse></g><g transform="matrix(1,0,0,1,64.84655864529837,121.64539651472076)"><svg viewBox="0 0 213.1584412271571 99.56076548831234" height="99.56076548831234" width="213.1584412271571"><g><svg viewBox="0 0 213.1584412271571 99.56076548831234" height="99.56076548831234" width="213.1584412271571"><g><svg viewBox="0 0 213.1584412271571 99.56076548831234" height="99.56076548831234" width="213.1584412271571"><g><svg viewBox="0 0 213.1584412271571 99.56076548831234" height="99.56076548831234" width="213.1584412271571"><g><svg viewBox="0 0 213.1584412271571 99.56076548831234" height="99.56076548831234" width="213.1584412271571"><g><svg viewBox="0 0 213.1584412271571 99.56076548831234" height="99.56076548831234" width="213.1584412271571"><g transform="matrix(1,0,0,1,0,0)"><svg width="213.1584412271571" viewBox="0.5 -34.4 73.65 34.4" height="99.56076548831234" data-palette-color="#ffffff"><path d="M38.45 0L26.75 0 25.3-4.85 13.25-4.85 11.8 0 0.5 0 13.05-34.4 25.9-34.4 38.45 0ZM19.2-24.8L15.55-12.55 23-12.55 19.4-24.8 19.2-24.8ZM62 0L49.2 0 37-34.4 48.8-34.4 55.7-11.4 55.9-11.4 62.85-34.4 74.15-34.4 62 0Z" opacity="1" transform="matrix(1,0,0,1,0,0)" fill="#ffffff" class="undefined-text-0" data-fill-palette-color="quaternary" id="text-0"></path></svg></g></svg></g></svg></g></svg></g><g></g></svg></g></svg></g></svg></g></svg></g><defs></defs></svg><rect width="342.85155851775386" height="342.85155851775386" fill="none" stroke="none" visibility="hidden"></rect></g></svg></g></svg>